<?xml version="1.0" encoding="UTF-8" standalone="no"?>
<!-- Created with Inkscape (http://www.inkscape.org/) -->

<svg
   xmlns:dc="http://purl.org/dc/elements/1.1/"
   xmlns:cc="http://creativecommons.org/ns#"
   xmlns:rdf="http://www.w3.org/1999/02/22-rdf-syntax-ns#"
   xmlns:svg="http://www.w3.org/2000/svg"
   xmlns="http://www.w3.org/2000/svg"
   xmlns:xlink="http://www.w3.org/1999/xlink"
   xmlns:sodipodi="http://sodipodi.sourceforge.net/DTD/sodipodi-0.dtd"
   xmlns:inkscape="http://www.inkscape.org/namespaces/inkscape"
   width="720px"
   height="480px"
   viewBox="0 0 720 480"
   version="1.1"
   id="SVGRoot"
   inkscape:version="0.92.3 (2405546, 2018-03-11)"
   sodipodi:docname="drawing.svg">
  <sodipodi:namedview
     id="base"
     pagecolor="#ffffff"
     bordercolor="#666666"
     borderopacity="1.0"
     inkscape:pageopacity="0.0"
     inkscape:pageshadow="2"
     inkscape:zoom="0.99999999"
     inkscape:cx="79.909848"
     inkscape:cy="280.50624"
     inkscape:document-units="px"
     inkscape:current-layer="flowRoot957"
     showgrid="false"
     inkscape:window-width="1600"
     inkscape:window-height="877"
     inkscape:window-x="-8"
     inkscape:window-y="-8"
     inkscape:window-maximized="1"
     inkscape:measure-start="114,82"
     inkscape:measure-end="180,25" />
  <defs
     id="defs3785">
    <linearGradient
       inkscape:collect="always"
       id="linearGradient6241">
      <stop
         style="stop-color:#ffdead;stop-opacity:1;"
         offset="0"
         id="stop6237" />
      <stop
         style="stop-color:#f4a460;stop-opacity:1"
         offset="1"
         id="stop6239" />
    </linearGradient>
    <linearGradient
       inkscape:collect="always"
       id="linearGradient5815">
      <stop
         style="stop-color:#000000;stop-opacity:1"
         offset="0"
         id="stop5811" />
      <stop
         style="stop-color:#ffa500;stop-opacity:0"
         offset="1"
         id="stop5813" />
    </linearGradient>
    <inkscape:perspective
       sodipodi:type="inkscape:persp3d"
       inkscape:vp_x="203.04066 : 5.6446095 : 1"
       inkscape:vp_y="0 : 1000 : 0"
       inkscape:vp_z="720 : 240 : 1"
       inkscape:persp3d-origin="360 : 160 : 1"
       id="perspective4006" />
    <linearGradient
       inkscape:collect="always"
       xlink:href="#linearGradient5815"
       id="linearGradient6235"
       x1="298.78973"
       y1="339.66837"
       x2="305.80463"
       y2="65.253082"
       gradientUnits="userSpaceOnUse"
       gradientTransform="matrix(1.2513165,-0.01794343,0.01794343,1.2513165,-62.250901,-31.137206)" />
    <linearGradient
       inkscape:collect="always"
       xlink:href="#linearGradient6241"
       id="linearGradient6243"
       x1="416.12061"
       y1="94.95652"
       x2="228.54872"
       y2="337.76346"
       gradientUnits="userSpaceOnUse"
       gradientTransform="matrix(1.2513165,-0.01794343,0.01794343,1.2513165,-62.250901,-31.137206)" />
  </defs>
  <metadata
     id="metadata3788">
    <rdf:RDF>
      <cc:Work
         rdf:about="">
        <dc:format>image/svg+xml</dc:format>
        <dc:type
           rdf:resource="http://purl.org/dc/dcmitype/StillImage" />
        <dc:title />
      </cc:Work>
    </rdf:RDF>
  </metadata>
  <g
     id="layer1"
     inkscape:groupmode="layer"
     inkscape:label="Layer 1"
     style="display:inline;opacity:1">
    <flowRoot
       xml:space="preserve"
       id="flowRoot5703"
       style="font-style:normal;font-variant:normal;font-weight:bold;font-stretch:normal;font-size:40px;line-height:1.25;font-family:sans-serif;-inkscape-font-specification:'sans-serif Bold';letter-spacing:0px;word-spacing:0px;fill:#000000;fill-opacity:1;stroke:none"><flowRegion
         id="flowRegion5705"
         style="font-style:normal;font-variant:normal;font-weight:bold;font-stretch:normal;font-family:sans-serif;-inkscape-font-specification:'sans-serif Bold'" /><flowPara
         id="flowPara5709" /></flowRoot>    <flowRoot
       xml:space="preserve"
       id="flowRoot5751"
       style="font-style:normal;font-variant:normal;font-weight:normal;font-stretch:normal;font-size:40px;line-height:1.25;font-family:'Showcard Gothic';-inkscape-font-specification:'Showcard Gothic';letter-spacing:0px;word-spacing:0px;fill:#000000;fill-opacity:1;stroke:none"><flowRegion
         id="flowRegion5753"
         style="font-style:normal;font-variant:normal;font-weight:normal;font-stretch:normal;font-family:'Showcard Gothic';-inkscape-font-specification:'Showcard Gothic'"><rect
           id="rect5755"
           width="373"
           height="325"
           x="190"
           y="73"
           style="font-style:normal;font-variant:normal;font-weight:normal;font-stretch:normal;font-family:'Showcard Gothic';-inkscape-font-specification:'Showcard Gothic'" /></flowRegion><flowPara
         id="flowPara5757" /></flowRoot>    <path
       style="fill:url(#linearGradient6243);fill-opacity:1;stroke:url(#linearGradient6235);stroke-width:1.25144506px;stroke-linecap:butt;stroke-linejoin:miter;stroke-opacity:1"
       d="M 365.88347,9.3201718 C 297.25268,10.778236 212.66888,26.404097 144.56197,77.287236 40.567369,154.9823 57.367277,308.80242 157.96853,401.25259 294.79334,526.99132 513.02415,461.24304 520.83237,394.79767 531.20545,306.52602 489.29011,315.98127 517.62519,258.42212 546.18343,200.40973 697.42951,217.17308 670.88643,123.5576 646.26992,36.736951 515.52111,24.408008 446.5372,14.133052 424.97973,10.92213 397.07926,8.6574136 365.88347,9.3201718 Z M 448.49776,238.13663 a 30.660405,38.794798 89.178455 0 1 39.23043,30.10102 30.660405,38.794798 89.178455 0 1 -38.3512,31.2135 30.660405,38.794798 89.178455 0 1 -39.23042,-30.10101 30.660405,38.794798 89.178455 0 1 38.35119,-31.21351 z"
       id="path5808"
       inkscape:connector-curvature="0" />
  </g>
  <g
     inkscape:groupmode="layer"
     id="layer3"
     inkscape:label="below" />
  <g
     inkscape:groupmode="layer"
     id="layer2"
     inkscape:label="high">
    <path
       style="display:inline;opacity:1;fill:#ff8c00;fill-opacity:1;stroke:none;stroke-width:1.04186487px;stroke-linecap:butt;stroke-linejoin:miter;stroke-opacity:1"
       d="m 301.24834,65.74287 c 3.7176,-7.737823 -2.7913,-16.796045 -24.59065,-17.953456 -19.5829,-1.039738 -52.14733,8.966853 -54.90143,26.702875 -5.98484,38.541541 47.91119,44.665041 53.41635,82.502551 0,0 -3.40529,20.18511 -27.60079,19.60376 -24.19549,-0.58138 -53.04555,-27.05589 -53.04555,-27.05589 0,0 45.43619,87.68115 104.09356,39.07759 15.70645,-13.01439 22.45441,-37.53746 6.84787,-61.18546 -19.21089,-29.109529 -37.60409,-23.05853 -38.57234,-42.72083 -0.88872,-18.047524 34.35298,-18.97114 34.35298,-18.97114 z"
       id="path5791-6"
       inkscape:connector-curvature="0"
       sodipodi:nodetypes="cssszcsssc" />
    <path
       style="fill:#ff4500;fill-opacity:1;stroke:none;stroke-width:0.76853412px;stroke-linecap:butt;stroke-linejoin:miter;stroke-opacity:1"
       d="m 241.55737,238.16363 c -50.07057,0.13056 -31.2504,85.96541 -46.40644,131.47507 16.80001,-32.30823 15.20908,-104.89844 44.38344,-106.82168 29.17438,-1.92321 32.36887,23.89839 29.21739,42.45669 -7.40224,43.59016 -67.21902,65.157 -74.06812,65.71006 -1.85836,5.25798 -13.74795,18.54562 -16.58051,22.25946 0,0 106.37251,-6.87948 116.00871,-85.39117 2.89244,-23.56635 -2.48391,-69.81898 -52.55447,-69.68843 z"
       id="path910"
       inkscape:connector-curvature="0"
       sodipodi:nodetypes="sczsccss" />
    <g
       aria-label="andor"
       transform="matrix(1.686162,0,0,1.686162,-207.10265,-198.17096)"
       style="font-style:normal;font-weight:normal;font-size:40px;line-height:1.25;font-family:sans-serif;letter-spacing:0px;word-spacing:0px;fill:#000000;fill-opacity:1;stroke:none"
       id="flowRoot949">
      <path
         d="m 324.90039,230.75688 v -4.57031 q -1.42578,0.11719 -3.08594,0.33203 -1.66015,0.19532 -2.51953,0.46875 -1.05469,0.33203 -1.62109,0.97657 -0.54688,0.625 -0.54688,1.66015 0,0.6836 0.11719,1.11328 0.11719,0.42969 0.58594,0.82032 0.44922,0.39062 1.07422,0.58593 0.625,0.17578 1.95312,0.17578 1.05469,0 2.12891,-0.42968 1.09375,-0.42969 1.91406,-1.13282 z m 0,3.39844 q -0.56641,0.42969 -1.40625,1.03516 -0.83984,0.60547 -1.58203,0.95703 -1.03516,0.46875 -2.14844,0.68359 -1.11328,0.23438 -2.4414,0.23438 -3.125,0 -5.23438,-1.9336 -2.10937,-1.93359 -2.10937,-4.9414 0,-2.40235 1.07421,-3.92578 1.07422,-1.52344 3.04688,-2.40235 1.95312,-0.8789 4.84375,-1.25 2.89062,-0.37109 5.99609,-0.54687 v -0.11719 q 0,-1.81641 -1.48437,-2.5 -1.48438,-0.70312 -4.375,-0.70312 -1.73828,0 -3.71094,0.625 -1.97266,0.60546 -2.83203,0.9375 h -0.64453 v -5.29297 q 1.11328,-0.29297 3.61328,-0.6836 2.51953,-0.41015 5.03906,-0.41015 5.9961,0 8.65235,1.85547 2.67578,1.83593 2.67578,5.78125 v 14.92187 h -6.97266 z"
         style="font-style:normal;font-variant:normal;font-weight:bold;font-stretch:normal;font-family:sans-serif;-inkscape-font-specification:'sans-serif Bold';fill:#ffa500"
         id="path841" />
      <path
         d="m 360.36914,236.47954 h -7.07031 v -10.87891 q 0,-1.32812 -0.13672,-2.63671 -0.13672,-1.32813 -0.46875,-1.95313 -0.39063,-0.72266 -1.15234,-1.05469 -0.74219,-0.33203 -2.08985,-0.33203 -0.95703,0 -1.95312,0.3125 -0.97657,0.3125 -2.12891,0.9961 v 15.54687 h -7.03125 v -21.93359 h 7.03125 v 2.42187 q 1.875,-1.46484 3.59375,-2.24609 1.73828,-0.78125 3.84766,-0.78125 3.55468,0 5.54687,2.07031 2.01172,2.07031 2.01172,6.19141 z"
         style="font-style:normal;font-variant:normal;font-weight:bold;font-stretch:normal;font-family:sans-serif;-inkscape-font-specification:'sans-serif Bold';fill:#ffa500"
         id="path843" />
      <path
         d="m 388.18164,236.47954 h -7.03125 v -2.28516 q -1.81641,1.48438 -3.39844,2.1875 -1.58203,0.70313 -3.65234,0.70313 -4.00391,0 -6.40625,-3.08594 -2.40234,-3.08594 -2.40234,-8.32031 0,-2.79297 0.80078,-4.94141 0.82031,-2.16797 2.22656,-3.71093 1.32812,-1.46485 3.22266,-2.26563 1.89453,-0.82031 3.78906,-0.82031 1.97265,0 3.22265,0.42969 1.26954,0.41015 2.59766,1.05468 v -9.33593 h 7.03125 z m -7.03125,-6.05469 v -10.76172 q -0.74219,-0.3125 -1.5625,-0.44921 -0.82031,-0.13672 -1.50391,-0.13672 -2.77343,0 -4.16015,1.73828 -1.38672,1.71875 -1.38672,4.78515 0,3.22266 1.11328,4.6875 1.11328,1.44532 3.57422,1.44532 0.95703,0 2.03125,-0.35157 1.07422,-0.37109 1.89453,-0.95703 z"
         style="font-style:normal;font-variant:normal;font-weight:bold;font-stretch:normal;font-family:sans-serif;-inkscape-font-specification:'sans-serif Bold';fill:#ffa500"
         id="path845" />
      <path
         d="m 417.24414,225.52251 q 0,5.41016 -3.16406,8.53516 -3.14453,3.10546 -8.84766,3.10546 -5.70312,0 -8.86719,-3.10546 -3.14453,-3.125 -3.14453,-8.53516 0,-5.44922 3.16407,-8.55469 3.18359,-3.10547 8.84765,-3.10547 5.74219,0 8.86719,3.125 3.14453,3.125 3.14453,8.53516 z m -8.65234,5.33203 q 0.68359,-0.83984 1.01562,-2.01172 0.35156,-1.1914 0.35156,-3.28125 0,-1.93359 -0.35156,-3.24219 -0.35156,-1.30859 -0.97656,-2.08984 -0.625,-0.80078 -1.50391,-1.13281 -0.8789,-0.33203 -1.89453,-0.33203 -1.01562,0 -1.8164,0.27343 -0.78125,0.27344 -1.50391,1.09375 -0.64453,0.76172 -1.03516,2.08985 -0.37109,1.32812 -0.37109,3.33984 0,1.79688 0.33203,3.125 0.33203,1.3086 0.97656,2.10938 0.625,0.76172 1.48438,1.11328 0.8789,0.35156 1.99219,0.35156 0.95703,0 1.8164,-0.3125 0.87891,-0.33203 1.48438,-1.09375 z"
         style="font-style:normal;font-variant:normal;font-weight:bold;font-stretch:normal;font-family:sans-serif;-inkscape-font-specification:'sans-serif Bold';fill:#ffa500"
         id="path847" />
      <path
         d="m 438.2207,221.24517 h -0.625 q -0.44922,-0.15625 -1.44531,-0.23438 -0.99609,-0.0781 -1.66016,-0.0781 -1.5039,0 -2.65625,0.19531 -1.15234,0.19531 -2.48046,0.66406 v 14.6875 h -7.03125 v -21.93359 h 7.03125 v 3.22265 q 2.32421,-1.99218 4.04296,-2.63672 1.71875,-0.66406 3.16407,-0.66406 0.37109,0 0.83984,0.0195 0.46875,0.0195 0.82031,0.0586 z"
         style="font-style:normal;font-variant:normal;font-weight:bold;font-stretch:normal;font-family:sans-serif;-inkscape-font-specification:'sans-serif Bold';fill:#ffa500"
         id="path849" />
    </g>
    <g
       aria-label="esigns"
       transform="matrix(1.3580354,0,0,1.3580354,-94.114136,-138.1734)"
       style="font-style:normal;font-weight:normal;font-size:40px;line-height:1.25;font-family:sans-serif;letter-spacing:0px;word-spacing:0px;fill:#000000;fill-opacity:1;stroke:none"
       id="flowRoot957">
      <path
         d="m 302.10742,378.13188 h -16.09375 q 0.15625,2.57813 1.95313,3.94532 1.8164,1.36718 5.33203,1.36718 2.22656,0 4.3164,-0.80078 2.08985,-0.80078 3.30079,-1.71875 h 0.78125 v 5.64453 q -2.38282,0.95704 -4.49219,1.38672 -2.10938,0.42969 -4.66797,0.42969 -6.60156,0 -10.11719,-2.96875 -3.51562,-2.96875 -3.51562,-8.45703 0,-5.42969 3.32031,-8.59375 3.33984,-3.18359 9.14062,-3.18359 5.35157,0 8.04688,2.71484 2.69531,2.69531 2.69531,7.77344 z m -6.99219,-4.12109 q -0.0586,-2.20703 -1.09375,-3.32031 -1.03515,-1.11328 -3.22265,-1.11328 -2.03125,0 -3.33985,1.05468 -1.30859,1.05469 -1.46484,3.37891 z"
         style="font-style:normal;font-variant:normal;font-weight:bold;font-stretch:normal;font-family:sans-serif;-inkscape-font-specification:'sans-serif Bold';fill:#ff7f50"
         id="path852" />
      <path
         d="m 326.13086,380.84673 q 0,3.39844 -3.04688,5.48828 -3.04687,2.07031 -8.33984,2.07031 -2.92969,0 -5.3125,-0.54687 -2.38281,-0.54688 -3.82812,-1.21094 v -5.78125 h 0.64453 q 0.52734,0.37109 1.21093,0.82031 0.70313,0.42969 1.97266,0.9375 1.09375,0.44922 2.48047,0.78125 1.38672,0.3125 2.96875,0.3125 2.07031,0 3.06641,-0.44922 0.99609,-0.46875 0.99609,-1.36718 0,-0.80079 -0.58594,-1.15235 -0.58594,-0.37109 -2.22656,-0.70312 -0.78125,-0.17578 -2.12891,-0.3711 -1.32812,-0.21484 -2.42187,-0.50781 -2.98828,-0.78125 -4.4336,-2.42187 -1.44531,-1.66016 -1.44531,-4.1211 0,-3.16406 2.98828,-5.2539 3.00782,-2.10938 8.20313,-2.10938 2.46094,0 4.70703,0.50781 2.26562,0.48828 3.53516,1.05469 v 5.54688 h -0.60547 q -1.5625,-1.07422 -3.57422,-1.73829 -1.99219,-0.68359 -4.04297,-0.68359 -1.69922,0 -2.87109,0.46875 -1.15235,0.46875 -1.15235,1.32813 0,0.78125 0.52735,1.1914 0.52734,0.41016 2.48046,0.82031 1.07422,0.21485 2.30469,0.42969 1.25,0.19531 2.5,0.50781 2.77344,0.72266 4.10156,2.28516 1.32813,1.54297 1.32813,3.86719 z"
         style="font-style:normal;font-variant:normal;font-weight:bold;font-stretch:normal;font-family:sans-serif;-inkscape-font-specification:'sans-serif Bold';fill:#ff7f50"
         id="path854" />
      <path
         d="m 337.84961,387.79985 h -7.03125 v -21.93359 h 7.03125 z m 0.19531,-25.05859 h -7.42187 v -5.33203 h 7.42187 z"
         style="font-style:normal;font-variant:normal;font-weight:bold;font-stretch:normal;font-family:sans-serif;-inkscape-font-specification:'sans-serif Bold';fill:#ff7f50"
         id="path856" />
      <path
         d="m 365.81836,385.28032 q 0,3.08594 -0.87891,5.19531 -0.8789,2.10938 -2.46093,3.30079 -1.58204,1.21093 -3.82813,1.73828 -2.22656,0.54687 -5.03906,0.54687 -2.28516,0 -4.51172,-0.27344 -2.20703,-0.27343 -3.82813,-0.66406 v -5.48828 h 0.85938 q 1.28906,0.50781 3.14453,0.91797 1.85547,0.42969 3.32031,0.42969 1.95313,0 3.16407,-0.3711 1.23046,-0.35156 1.875,-1.01562 0.60546,-0.625 0.8789,-1.60156 0.27344,-0.97657 0.27344,-2.34375 v -0.41016 q -1.26953,1.03516 -2.8125,1.64062 -1.54297,0.60547 -3.4375,0.60547 -4.60938,0 -7.10938,-2.77343 -2.5,-2.77344 -2.5,-8.4375 0,-2.71485 0.76172,-4.6875 0.76172,-1.97266 2.14844,-3.4375 1.28906,-1.36719 3.16406,-2.12891 1.89453,-0.76172 3.86719,-0.76172 1.77734,0 3.22266,0.42969 1.46484,0.41015 2.65625,1.15234 l 0.2539,-0.97656 h 6.81641 z m -7.03125,-4.39453 v -9.94141 q -0.60547,-0.2539 -1.48438,-0.39062 -0.8789,-0.15625 -1.58203,-0.15625 -2.77343,0 -4.16015,1.60156 -1.38672,1.58203 -1.38672,4.4336 0,3.16406 1.17187,4.41406 1.19141,1.25 3.51563,1.25 1.05469,0 2.07031,-0.33203 1.01563,-0.33203 1.85547,-0.87891 z"
         style="font-style:normal;font-variant:normal;font-weight:bold;font-stretch:normal;font-family:sans-serif;-inkscape-font-specification:'sans-serif Bold';fill:#ff7f50"
         id="path858" />
      <path
         d="m 394.49023,387.79985 h -7.07031 v -10.8789 q 0,-1.32813 -0.13672,-2.63672 -0.13672,-1.32813 -0.46875,-1.95313 -0.39062,-0.72265 -1.15234,-1.05468 -0.74219,-0.33204 -2.08984,-0.33204 -0.95704,0 -1.95313,0.3125 -0.97656,0.3125 -2.12891,0.9961 v 15.54687 h -7.03125 v -21.93359 h 7.03125 v 2.42187 q 1.875,-1.46484 3.59375,-2.24609 1.73829,-0.78125 3.84766,-0.78125 3.55469,0 5.54688,2.07031 2.01171,2.07032 2.01171,6.19141 z"
         style="font-style:normal;font-variant:normal;font-weight:bold;font-stretch:normal;font-family:sans-serif;-inkscape-font-specification:'sans-serif Bold';fill:#ff7f50"
         id="path860" />
      <path
         d="m 420.03711,380.84673 q 0,3.39844 -3.04688,5.48828 -3.04687,2.07031 -8.33984,2.07031 -2.92969,0 -5.3125,-0.54687 -2.38281,-0.54688 -3.82812,-1.21094 v -5.78125 h 0.64453 q 0.52734,0.37109 1.21093,0.82031 0.70313,0.42969 1.97266,0.9375 1.09375,0.44922 2.48047,0.78125 1.38672,0.3125 2.96875,0.3125 2.07031,0 3.06641,-0.44922 0.99609,-0.46875 0.99609,-1.36718 0,-0.80079 -0.58594,-1.15235 -0.58594,-0.37109 -2.22656,-0.70312 -0.78125,-0.17578 -2.12891,-0.3711 -1.32812,-0.21484 -2.42187,-0.50781 -2.98828,-0.78125 -4.4336,-2.42187 -1.44531,-1.66016 -1.44531,-4.1211 0,-3.16406 2.98828,-5.2539 3.00782,-2.10938 8.20313,-2.10938 2.46094,0 4.70703,0.50781 2.26562,0.48828 3.53516,1.05469 v 5.54688 h -0.60547 q -1.5625,-1.07422 -3.57422,-1.73829 -1.99219,-0.68359 -4.04297,-0.68359 -1.69922,0 -2.87109,0.46875 -1.15235,0.46875 -1.15235,1.32813 0,0.78125 0.52735,1.1914 0.52734,0.41016 2.48046,0.82031 1.07422,0.21485 2.30469,0.42969 1.25,0.19531 2.5,0.50781 2.77344,0.72266 4.10156,2.28516 1.32813,1.54297 1.32813,3.86719 z"
         style="font-style:normal;font-variant:normal;font-weight:bold;font-stretch:normal;font-family:sans-serif;-inkscape-font-specification:'sans-serif Bold';fill:#ff7f50"
         id="path862" />
    </g>
  </g>
</svg>
